<svg xmlns="http://www.w3.org/2000/svg" width="687.092" height="206.027" viewBox="0 0 687.092 206.027">
  <g id="fight_svg" transform="translate(191 -49.533)">
    <g id="lefthand" transform="translate(-191 0.001)">
      <path id="Path_1" data-name="Path 1" d="M148.048,185.018a15.132,15.132,0,0,0-15.259-14.139h-3.921A14.83,14.83,0,0,0,135.89,157.2a15.115,15.115,0,0,0-15.213-13.8H109.845c.447,5.277-1.26,12.514-5.056,16.767a16.888,16.888,0,0,1-5.15,3.934.66.66,0,0,0,.284,1.257h3.872a4.635,4.635,0,0,1,3.988,2.145,4.381,4.381,0,0,1-3.749,6.632H80.374a4.4,4.4,0,0,0-2.384.7l-.006,0a11.673,11.673,0,0,0,0,19.533h0a4.649,4.649,0,0,0,2.482.718H109.44a4.4,4.4,0,0,1,4.19,5.674,4.625,4.625,0,0,1-4.46,3.1h-28.7a4.651,4.651,0,0,0-2.482.718h0a11.673,11.673,0,0,0,0,19.533h0a4.019,4.019,0,0,0,2.273.705h20.17a4.42,4.42,0,0,1,4.3,5.262,4.506,4.506,0,0,1-4.47,3.515H80.449a4.406,4.406,0,0,0-2.378.676,11.684,11.684,0,0,0,4,21.282h26.976a15.115,15.115,0,0,0,15.212-13.8,14.83,14.83,0,0,0-7.02-13.68h4.436a15.115,15.115,0,0,0,15.212-13.8,14.83,14.83,0,0,0-7.02-13.68h3.342A14.855,14.855,0,0,0,148.048,185.018Z"/>
      <path id="Path_3" data-name="Path 3" d="M63.926,154.856a20.41,20.41,0,0,1,.8-5.6l-3.177-2.836a3.894,3.894,0,1,1,5.187-5.81l15.17,13.54a12.157,12.157,0,0,0,16.192-18.139L71.487,112.26a12.136,12.136,0,0,0-16.786.566l-.115.112c-34.657,32.695-42.231,40.8-45.009,44.307C2.309,166.408,0,173.2,0,183.04v30.485a42.081,42.081,0,0,0,42.034,42.034H67.442a20.465,20.465,0,0,1,2.879-26.333,20.494,20.494,0,0,1,0-29.749,20.493,20.493,0,0,1,0-29.748A20.4,20.4,0,0,1,63.926,154.856Z"/>
    </g>
    <g id="righthand" transform="translate(190.999)">
      <path id="Path_5" data-name="Path 5" d="M204.663,224.824H224.74a4.325,4.325,0,0,0,2.364-.7l.006,0a11.671,11.671,0,0,0,0-19.531l-.006,0a4.4,4.4,0,0,0-2.406-.716h-28.79a4.657,4.657,0,0,1-3.994-2.131,4.379,4.379,0,0,1,3.739-6.646h28.861a5.035,5.035,0,0,0,2.594-.719h0a11.671,11.671,0,0,0,0-19.531l-.006,0a4.476,4.476,0,0,0-2.408-.7H201.06a4.384,4.384,0,0,1-3.763-6.615,4.606,4.606,0,0,1,3.98-2.163h4.794a.959.959,0,0,0,.472-1.8,25.245,25.245,0,0,1-6.328-5.192,19.706,19.706,0,0,1-4.976-14.97H184.417A15.115,15.115,0,0,0,169.2,157.2a14.828,14.828,0,0,0,7.022,13.682H172.3a15.132,15.132,0,0,0-15.259,14.139,14.857,14.857,0,0,0,14.84,15.574h3.342a14.827,14.827,0,0,0-7.02,13.68,15.115,15.115,0,0,0,15.212,13.8h4.436a14.83,14.83,0,0,0-7.02,13.68,15.115,15.115,0,0,0,15.212,13.8h26.976a11.683,11.683,0,0,0,4.089-21.224h0a4.363,4.363,0,0,0-2.42-.733H204.836a4.508,4.508,0,0,1-4.47-3.512A4.415,4.415,0,0,1,204.663,224.824Z"/>
      <path id="Path_6" data-name="Path 6" d="M295.514,157.242a14.816,14.816,0,0,0-2.769-3.973l-7.264-7.424L250.39,112.826a12.136,12.136,0,0,0-16.785-.566L207,136.013a12.157,12.157,0,1,0,16.192,18.139l15.169-13.54A3.889,3.889,0,0,1,244,145.931c-.382.48-3.12,2.874-3.627,3.327a20.379,20.379,0,0,1-5.6,20.472,20.493,20.493,0,0,1,0,29.748,20.494,20.494,0,0,1,0,29.749,20.465,20.465,0,0,1,2.879,26.333h25.409a42.083,42.083,0,0,0,42.034-42.035V183.04A39.462,39.462,0,0,0,295.514,157.242Z"/>
    </g>
    <g id="sparks">
      <path id="Path_7" data-name="Path 7" d="M160.046,122.967V57.033a7.5,7.5,0,0,0-15,0v65.934a7.5,7.5,0,0,0,15,0Z"/>
      <path id="Path_8" data-name="Path 8" d="M115.792,126.164a7.5,7.5,0,1,0,13.568-6.394L106.3,70.836A7.5,7.5,0,0,0,92.732,77.23Z"/>
      <path id="Path_9" data-name="Path 9" d="M179.319,129.751a7.5,7.5,0,0,0,9.982-3.587l23.06-48.934a7.5,7.5,0,0,0-13.568-6.394l-23.06,48.934A7.5,7.5,0,0,0,179.319,129.751Z"/>
    </g>
    <text id="Fight" transform="translate(154 191.533)" font-size="113" font-family="ALLAGESDEMO, ALL AGES"><tspan x="-147.521" y="0">FIGHT</tspan></text>
  </g>
</svg>
